<svg width="60" height="61" viewBox="0 0 60 61" fill="none" xmlns="http://www.w3.org/2000/svg">
<rect y="0.703125" width="60" height="60" rx="8" fill="#6366F1" fill-opacity="0.08"/>
<path d="M38.5312 33.116C39.1354 33.116 39.625 33.6056 39.625 34.2097V35.5222C39.625 36.1264 39.1354 36.616 38.5312 36.616H36.0156C35.4115 36.616 34.9219 36.1264 34.9219 35.5222V34.2097C34.9219 33.6056 35.4115 33.116 36.0156 33.116H38.5312ZM41.8125 31.1472V27.866H18.1875V36.6094C18.1875 37.8155 19.1689 38.7969 20.375 38.7969H39.625C40.8311 38.7969 41.8125 37.8155 41.8125 36.6094C41.8125 36.0052 42.3021 35.5156 42.9062 35.5156C43.5104 35.5156 44 36.0052 44 36.6094C44 39.0218 42.0374 40.9844 39.625 40.9844H20.375C17.9626 40.9844 16 39.0218 16 36.6094V24.7969C16 22.3844 17.9626 20.4219 20.375 20.4219H39.625C42.0374 20.4219 44 22.3844 44 24.7969V31.1472C44 31.7514 43.5104 32.241 42.9062 32.241C42.3021 32.241 41.8125 31.7514 41.8125 31.1472ZM41.8125 25.6785V24.7969C41.8125 23.5908 40.8311 22.6094 39.625 22.6094H20.375C19.1689 22.6094 18.1875 23.5908 18.1875 24.7969V25.6785H41.8125ZM21.4688 30.0535C20.8646 30.0535 20.375 30.5431 20.375 31.1472C20.375 31.7514 20.8646 32.241 21.4688 32.241H30.4922C31.0963 32.241 31.5859 31.7514 31.5859 31.1472C31.5859 30.5431 31.0963 30.0535 30.4922 30.0535H21.4688Z" fill="url(#paint0_linear_4632_11168)"/>
<defs>
<linearGradient id="paint0_linear_4632_11168" x1="16" y1="30.7523" x2="44" y2="30.7523" gradientUnits="userSpaceOnUse">
<stop stop-color="#6366F1"/>
<stop offset="0.5" stop-color="#8B5CF6"/>
<stop offset="1" stop-color="#D946EF"/>
</linearGradient>
</defs>
</svg>
