<svg width="60" height="61" viewBox="0 0 60 61" fill="none" xmlns="http://www.w3.org/2000/svg">
<rect y="0.184326" width="60" height="60" rx="8" fill="#6366F1" fill-opacity="0.08"/>
<g clip-path="url(#clip0_4632_11131)">
<path d="M29.9453 37.8406C24.9141 37.8406 22.5728 33.6187 22.4753 33.4391C22.188 32.9078 22.3858 32.2441 22.9171 31.9565C23.4486 31.6692 24.1121 31.867 24.3994 32.3983C24.4018 32.4026 24.8733 33.2458 25.8111 34.0656C27.0159 35.119 28.4068 35.6531 29.9453 35.6531C33.6873 35.6531 35.4734 32.4308 35.491 32.3983C35.7785 31.867 36.4422 31.6692 36.9735 31.9568C37.5048 32.2441 37.7026 32.9078 37.4151 33.4391C37.3179 33.6187 34.9766 37.8406 29.9453 37.8406ZM37.244 42.1667C37.7607 41.8537 37.9258 41.1812 37.6129 40.6645C37.2999 40.1479 36.6272 39.9828 36.1107 40.2957C34.2735 41.4085 32.1604 41.9968 30 41.9968C23.4866 41.9968 18.1875 36.6977 18.1875 30.1843C18.1875 23.671 23.4866 18.3718 30 18.3718C36.5134 18.3718 41.8125 23.671 41.8125 30.1843C41.8125 32.5135 41.1199 34.7804 39.8096 36.7404C39.4738 37.2426 39.6088 37.922 40.1108 38.2576C40.6132 38.5934 41.2923 38.4584 41.6279 37.9561C43.1799 35.6353 44 32.9478 44 30.1843C44 26.4449 42.5437 22.929 39.8995 20.2848C37.2553 17.6406 33.7395 16.1843 30 16.1843C26.2605 16.1843 22.7447 17.6406 20.1005 20.2848C17.4563 22.929 16 26.4449 16 30.1843C16 33.9238 17.4563 37.4396 20.1005 40.0838C22.7447 42.7281 26.2605 44.1843 30 44.1843C32.5601 44.1843 35.065 43.4866 37.244 42.1667ZM37.6016 27.5593C37.6016 26.0516 36.3749 24.825 34.8672 24.825C33.3594 24.825 32.1328 26.0516 32.1328 27.5593C32.1328 28.1635 32.6224 28.6531 33.2266 28.6531C33.8307 28.6531 34.3203 28.1635 34.3203 27.5593C34.3203 27.2577 34.5656 27.0125 34.8672 27.0125C35.1688 27.0125 35.4141 27.2577 35.4141 27.5593C35.4141 28.1635 35.9037 28.6531 36.5078 28.6531C37.1119 28.6531 37.6016 28.1635 37.6016 27.5593ZM27.9219 27.5593C27.9219 26.0516 26.6953 24.825 25.1875 24.825C23.6797 24.825 22.4531 26.0516 22.4531 27.5593C22.4531 28.1635 22.9427 28.6531 23.5469 28.6531C24.151 28.6531 24.6406 28.1635 24.6406 27.5593C24.6406 27.2577 24.8859 27.0125 25.1875 27.0125C25.4891 27.0125 25.7344 27.2577 25.7344 27.5593C25.7344 28.1635 26.224 28.6531 26.8281 28.6531C27.4323 28.6531 27.9219 28.1635 27.9219 27.5593Z" fill="url(#paint0_linear_4632_11131)"/>
</g>
<defs>
<linearGradient id="paint0_linear_4632_11131" x1="16" y1="30.2513" x2="44" y2="30.2513" gradientUnits="userSpaceOnUse">
<stop stop-color="#6366F1"/>
<stop offset="0.5" stop-color="#8B5CF6"/>
<stop offset="1" stop-color="#D946EF"/>
</linearGradient>
<clipPath id="clip0_4632_11131">
<rect width="28" height="28" fill="white" transform="translate(16 16.1843)"/>
</clipPath>
</defs>
</svg>
