<svg width="60" height="61" viewBox="0 0 60 61" fill="none" xmlns="http://www.w3.org/2000/svg">
<rect y="0.184326" width="60" height="60" rx="8" fill="#6366F1" fill-opacity="0.08"/>
<g clip-path="url(#clip0_4632_11138)">
<path d="M38.1484 30.2393C36.3391 30.2393 34.8672 31.7113 34.8672 33.5206C34.8672 35.3298 36.3391 36.8018 38.1484 36.8018H42.7968C42.8154 36.8018 42.8335 36.8 42.8518 36.799C42.8699 36.7999 42.8878 36.8018 42.9062 36.8018C43.5103 36.8018 43.9999 36.3121 43.9999 35.708V27.1221C43.9999 25.666 43.2843 24.3745 42.1868 23.5789L38.4659 17.4747C38.3142 17.2257 38.0693 17.0477 37.7857 16.9801C37.5021 16.9124 37.2033 16.9608 36.9555 17.1145L34.2115 18.8161L32.974 16.7219C32.8252 16.4701 32.5818 16.2885 32.2982 16.2174C32.0145 16.1463 31.7141 16.1918 31.4643 16.3436L20.9278 22.7471H19.2812C18.6873 22.7471 18.2024 22.2712 18.1878 21.6807C18.2024 21.0902 18.6873 20.6143 19.2812 20.6143H21.3047C21.9088 20.6143 22.3984 20.1246 22.3984 19.5205C22.3984 18.9165 21.9088 18.4268 21.3047 18.4268H19.2812C17.7337 18.4268 16.4331 19.5038 16.0891 20.9476C16.0319 21.0803 16 21.2263 16 21.3799V21.6533V21.708V39.8096C16 42.2219 17.9626 44.1846 20.375 44.1846H39.625C41.5111 44.1846 43.1793 42.983 43.7758 41.1947C43.967 40.6217 43.6574 40.0022 43.0844 39.8111C42.5114 39.62 41.8919 39.9295 41.7007 40.5025C41.4025 41.3964 40.5684 41.9971 39.625 41.9971H20.375C19.1688 41.9971 18.1875 41.0158 18.1875 39.8096V24.747C18.5298 24.8684 18.8979 24.9346 19.2812 24.9346H39.625C40.8311 24.9346 41.8125 25.9159 41.8125 27.1221V30.2393H38.1484ZM41.8125 34.6143H38.1484C37.5453 34.6143 37.0546 34.1237 37.0546 33.5205C37.0546 32.9174 37.5453 32.4268 38.1484 32.4268H41.8125V34.6143ZM25.1398 22.7472L31.6541 18.7882L32.8188 20.7592C32.8411 20.813 32.8668 20.8661 32.8986 20.9173C32.9224 20.9556 32.9487 20.9914 32.9762 21.0257L33.9934 22.7472H25.1398ZM36.5343 22.7471L35.3246 20.6998L37.1717 19.5544L39.1179 22.7471H36.5343Z" fill="url(#paint0_linear_4632_11138)"/>
</g>
<defs>
<linearGradient id="paint0_linear_4632_11138" x1="16" y1="30.2516" x2="43.9999" y2="30.2516" gradientUnits="userSpaceOnUse">
<stop stop-color="#6366F1"/>
<stop offset="0.5" stop-color="#8B5CF6"/>
<stop offset="1" stop-color="#D946EF"/>
</linearGradient>
<clipPath id="clip0_4632_11138">
<rect width="28" height="28" fill="white" transform="translate(16 16.1843)"/>
</clipPath>
</defs>
</svg>
