<svg width="60" height="61" viewBox="0 0 60 61" fill="none" xmlns="http://www.w3.org/2000/svg">
<rect y="0.703125" width="60" height="60" rx="8" fill="#6366F1" fill-opacity="0.08"/>
<g clip-path="url(#clip0_4632_11161)">
<path d="M29.9452 44.7031C29.7775 44.7031 29.6101 44.6647 29.456 44.5878C29.3281 44.5237 26.2865 42.9815 23.1042 39.5223C21.2388 37.4951 19.7067 35.2217 18.5502 32.7657C17.1056 29.698 16.2484 26.3394 16.0016 22.7833C15.9816 22.4932 16.0779 22.2071 16.2691 21.9882C16.4605 21.7692 16.7309 21.6353 17.0213 21.6162C19.0244 21.4846 20.5937 19.8071 20.5937 17.7969C20.5937 17.1927 21.0833 16.7031 21.6874 16.7031H38.3124C38.9163 16.7031 39.4062 17.1927 39.4062 17.7969C39.4062 19.8058 40.9744 21.4834 42.9765 21.6162C43.2713 21.6357 43.5455 21.7737 43.737 21.9986C43.9286 22.2236 44.0209 22.5164 43.9931 22.8106C43.619 26.7592 42.5287 30.4523 40.7522 33.7876C40.4681 34.3208 39.8057 34.5227 39.2727 34.2388C38.7395 33.9549 38.5376 33.2924 38.8215 32.7592C40.3096 29.9655 41.2767 26.8936 41.702 23.6147C39.4624 23.0242 37.7418 21.1721 37.3189 18.8906H22.681C22.2563 21.1819 20.5232 23.0398 18.2697 23.6219C18.8445 29.1398 20.9893 33.9643 24.6529 37.9749C26.846 40.3753 28.9961 41.7917 29.939 42.3522C30.9708 41.7246 33.4662 40.038 35.8955 37.1137C36.2815 36.6489 36.9709 36.5852 37.4357 36.9713C37.9003 37.3573 37.9642 38.0468 37.5782 38.5115C34.1209 42.6733 30.5921 44.507 30.4434 44.5831C30.287 44.6632 30.1161 44.7031 29.9452 44.7031ZM30.7912 38.7841C31.1554 38.3019 31.0599 37.6162 30.5782 37.252C29.6325 36.5374 28.7376 35.7271 27.9182 34.844C25.5356 32.2754 23.9191 29.2575 23.1072 25.8648C23.5447 25.5268 23.9563 25.1534 24.3364 24.7492C24.9665 24.0787 25.5047 23.3299 25.9357 22.5233C26.2203 21.9905 26.0191 21.3279 25.4863 21.0431C24.9535 20.7585 24.2909 20.9598 24.0063 21.4926C23.666 22.1292 23.2409 22.7207 22.7427 23.2509C22.3035 23.7181 21.8113 24.1327 21.2803 24.4837C20.9077 24.7298 20.7221 25.1778 20.8116 25.6155C21.6443 29.6873 23.4955 33.2929 26.3145 36.3317C27.2207 37.3086 28.2115 38.2056 29.2593 38.9973C29.4567 39.1464 29.6883 39.2184 29.9179 39.2184C30.249 39.2184 30.5763 39.0686 30.7912 38.7841Z" fill="url(#paint0_linear_4632_11161)"/>
</g>
<defs>
<linearGradient id="paint0_linear_4632_11161" x1="15.999" y1="30.7701" x2="43.9979" y2="30.7701" gradientUnits="userSpaceOnUse">
<stop stop-color="#6366F1"/>
<stop offset="0.5" stop-color="#8B5CF6"/>
<stop offset="1" stop-color="#D946EF"/>
</linearGradient>
<clipPath id="clip0_4632_11161">
<rect width="28" height="28" fill="white" transform="translate(16 16.7031)"/>
</clipPath>
</defs>
</svg>
