<svg width="60" height="61" viewBox="0 0 60 61" fill="none" xmlns="http://www.w3.org/2000/svg">
<rect y="0.443848" width="60" height="60" rx="8" fill="#6366F1" fill-opacity="0.08"/>
<g clip-path="url(#clip0_4632_11154)">
<path d="M41.8127 38.4265V19.178C41.8127 18.8766 41.5673 18.6311 41.2658 18.6311H38.8598C38.5582 18.6311 38.3129 18.8766 38.3129 19.178V42.2544H42.9062C43.5104 42.2544 44 42.744 44 43.348C44 43.9521 43.5104 44.4417 42.9062 44.4417H17.0959C16.4918 44.4417 16.0021 43.9521 16.0021 43.348V35.5283C16.0021 34.0208 17.2288 32.7941 18.7363 32.7941H21.1423C22.6501 32.7941 23.8765 34.0208 23.8765 35.5283V38.4265C23.8765 39.0306 23.3869 39.5203 22.783 39.5203C22.1788 39.5203 21.6892 39.0306 21.6892 38.4265V35.5283C21.6892 35.2269 21.444 34.9814 21.1423 34.9814H18.7363C18.4349 34.9814 18.1894 35.2269 18.1894 35.5283V42.2544H26.064V27.9274C26.064 26.4196 27.2904 25.1932 28.7982 25.1932H31.2042C32.7117 25.1932 33.9384 26.4196 33.9384 27.9274V38.4265C33.9384 39.0306 33.4487 39.5203 32.8446 39.5203C32.2407 39.5203 31.7509 39.0306 31.7509 38.4265V27.9274C31.7509 27.6257 31.5056 27.3805 31.2042 27.3805H28.7982C28.4965 27.3805 28.2513 27.6257 28.2513 27.9274V42.2544H36.1256V19.178C36.1256 17.6705 37.3523 16.4438 38.8598 16.4438H41.2658C42.7734 16.4438 44 17.6705 44 19.178V38.4265C44 39.0306 43.5104 39.5203 42.9062 39.5203C42.3023 39.5203 41.8127 39.0306 41.8127 38.4265ZM20.3568 26.2321H18.7282C18.4594 26.2321 18.1873 26.0631 18.1873 25.7401C18.1873 25.136 17.6977 24.6463 17.0938 24.6463C16.4896 24.6463 16 25.136 16 25.7401C16 27.2087 17.1454 28.3659 18.6259 28.417V29.0209C18.6259 29.625 19.1155 30.1147 19.7196 30.1147C20.3235 30.1147 20.8131 29.625 20.8131 29.0209V28.3875C22.3177 28.1773 23.4392 26.94 23.4392 25.3981V25.3024C23.4392 23.5838 22.0564 22.1856 20.3568 22.1856H19.3547C18.8564 22.1856 18.4659 21.8051 18.4659 21.3192V21.2399C18.4659 20.7503 18.848 20.3811 19.3547 20.3811H20.3024C20.5809 20.3811 20.8689 20.5674 20.8689 20.8795C20.8689 21.4836 21.3587 21.9733 21.9626 21.9733C22.5668 21.9733 23.0564 21.4836 23.0564 20.8795C23.0564 19.5687 22.0885 18.4752 20.8131 18.2408V17.5376C20.8131 16.9335 20.3235 16.4438 19.7196 16.4438C19.1155 16.4438 18.6259 16.9335 18.6259 17.5376V18.2784C18.0845 18.4062 17.5887 18.676 17.1867 19.0695C16.6009 19.6426 16.2786 20.4134 16.2786 21.2399V21.3192C16.2786 22.1452 16.6003 22.9166 17.1845 23.4915C17.7624 24.0599 18.5331 24.3729 19.3547 24.3729H20.3568C20.842 24.3729 21.2517 24.7986 21.2517 25.3024V25.3981C21.2517 25.8736 20.867 26.2321 20.3568 26.2321Z" fill="url(#paint0_linear_4632_11154)"/>
</g>
<defs>
<linearGradient id="paint0_linear_4632_11154" x1="16" y1="30.5098" x2="44" y2="30.5098" gradientUnits="userSpaceOnUse">
<stop stop-color="#6366F1"/>
<stop offset="0.5" stop-color="#8B5CF6"/>
<stop offset="1" stop-color="#D946EF"/>
</linearGradient>
<clipPath id="clip0_4632_11154">
<rect width="28" height="28" fill="white" transform="translate(16 16.4438)"/>
</clipPath>
</defs>
</svg>
