<svg width="60" height="61" viewBox="0 0 60 61" fill="none" xmlns="http://www.w3.org/2000/svg">
<rect y="0.443848" width="60" height="60" rx="8" fill="#6366F1" fill-opacity="0.08"/>
<g clip-path="url(#clip0_4632_11147)">
<path d="M42.3217 38.9883C43.4213 37.4912 43.999 35.7514 43.999 33.9178C43.999 30.9827 42.4768 28.2576 39.9088 26.557C39.672 23.9419 38.4509 21.5167 36.4093 19.6481C34.1518 17.5818 31.1566 16.4438 27.9756 16.4438C24.7946 16.4438 21.7995 17.5818 19.5419 19.6481C17.2573 21.7391 15.9991 24.527 15.9991 27.4981C15.9991 29.7834 16.7358 31.95 18.1362 33.8038L16.0788 38.8932C15.9119 39.306 16.0119 39.7786 16.3315 40.0884C16.5399 40.2904 16.8143 40.397 17.0931 40.397C17.242 40.3969 17.3922 40.3665 17.534 40.304L23.402 37.7173C24.1387 37.9989 24.8977 38.2095 25.6741 38.349C26.4695 39.657 27.6039 40.7647 28.983 41.571C30.5227 42.4711 32.3004 42.9521 34.129 42.9659C34.1558 42.9679 34.1826 42.97 34.21 42.97C35.4742 42.97 36.6991 42.7517 37.8578 42.3203L42.4641 44.3509C42.6059 44.4134 42.7561 44.4438 42.905 44.4438C43.1838 44.4438 43.4583 44.3373 43.6666 44.1353C43.9863 43.8254 44.0862 43.3528 43.9193 42.9401L42.3217 38.9883ZM40.0554 39.2188L40.8817 41.2627L38.3203 40.1337C38.0434 40.0116 37.7283 40.0097 37.4499 40.1285C36.446 40.5568 35.371 40.7763 34.2543 40.782C34.2395 40.7814 34.2249 40.7797 34.21 40.7797C32.0545 40.7797 30.0182 39.9374 28.5955 38.5363C30.3993 38.4499 32.1673 37.9893 33.7436 37.1887C34.2823 36.9152 34.4971 36.2569 34.2235 35.7183C33.95 35.1797 33.2916 34.9649 32.753 35.2384C31.302 35.9754 29.6499 36.3649 27.9756 36.3649C26.5207 36.3649 25.12 36.0821 23.8126 35.5242C23.5343 35.4054 23.2191 35.4072 22.9422 35.5294L19.1164 37.2159L20.4045 34.0295C20.5572 33.6517 20.4873 33.2202 20.2228 32.9101C18.8907 31.3472 18.1866 29.4758 18.1866 27.4981C18.1866 22.6089 22.5779 18.6313 27.9756 18.6313C33.3733 18.6313 37.7646 22.6089 37.7646 27.4981C37.7646 29.0773 37.3004 30.6276 36.422 31.9814C36.0932 32.4881 36.2374 33.1654 36.7442 33.4942C37.2509 33.8231 37.9282 33.6787 38.2571 33.172C39.0366 31.9705 39.5574 30.644 39.7982 29.2663C41.0795 30.5211 41.8115 32.1738 41.8115 33.9178C41.8115 35.445 41.2671 36.891 40.2371 38.0993C39.9726 38.4095 39.9027 38.841 40.0554 39.2188ZM29.0147 33.1235C29.0147 33.7276 28.525 34.2172 27.9209 34.2172C27.3168 34.2172 26.8272 33.7276 26.8272 33.1235C26.8272 32.5194 27.3168 32.0298 27.9209 32.0298C28.525 32.0298 29.0147 32.5194 29.0147 33.1235ZM32.0762 24.9287C32.0769 24.9439 32.0772 24.9591 32.0772 24.9745C32.0776 26.621 31.0993 28.1027 29.5849 28.7491C29.2716 28.8829 29.069 29.1985 29.069 29.5531V29.6235C29.069 30.2276 28.5793 30.7173 27.9753 30.7173C27.3712 30.7173 26.8815 30.2276 26.8815 29.6235V29.5531C26.8815 28.321 27.6055 27.2157 28.7261 26.7374C29.4235 26.4396 29.8774 25.7625 29.8894 25.0064C29.8892 24.9959 29.889 24.9853 29.889 24.9748C29.889 23.9196 29.0305 23.0611 27.9753 23.0611C26.9201 23.061 26.0615 23.9195 26.0615 24.9747C26.0615 25.5788 25.5719 26.0684 24.9678 26.0684C24.3637 26.0684 23.874 25.5788 23.874 24.9747C23.874 22.7133 25.7138 20.8735 27.9753 20.8735C30.2213 20.8735 32.0516 22.6884 32.0762 24.9287Z" fill="url(#paint0_linear_4632_11147)"/>
</g>
<defs>
<linearGradient id="paint0_linear_4632_11147" x1="15.999" y1="30.5108" x2="43.9991" y2="30.5108" gradientUnits="userSpaceOnUse">
<stop stop-color="#6366F1"/>
<stop offset="0.5" stop-color="#8B5CF6"/>
<stop offset="1" stop-color="#D946EF"/>
</linearGradient>
<clipPath id="clip0_4632_11147">
<rect width="28" height="28" fill="white" transform="translate(16 16.4438)"/>
</clipPath>
</defs>
</svg>
