<svg width="66" height="59" viewBox="0 0 66 59" fill="none" xmlns="http://www.w3.org/2000/svg">
<path d="M55.9516 32.7437C44.934 31.1703 36.426 21.6964 36.426 10.2504C36.426 6.99997 37.121 3.9162 38.3529 1.11748C36.689 0.727692 34.9603 0.500366 33.1756 0.500366C20.631 0.500366 10.4258 10.705 10.4258 23.2502V32.3111C10.4258 38.7428 7.60802 44.8139 2.66458 48.9933C1.4006 50.0722 0.675781 51.6486 0.675781 53.3125C0.675781 56.4492 3.22694 59.0004 6.36308 59.0004H59.9881C63.1248 59.0004 65.676 56.4492 65.676 53.3125C65.676 51.6486 64.9512 50.0722 63.6544 48.9641C58.8574 44.905 56.0753 39.0124 55.9516 32.7437Z" fill="url(#paint0_linear_4632_11008)"/>
<defs>
<linearGradient id="paint0_linear_4632_11008" x1="-3.5" y1="48.0004" x2="58.5" y2="13.0004" gradientUnits="userSpaceOnUse">
<stop stop-color="#FFBA08"/>
<stop offset="1" stop-color="#FFDB7E"/>
</linearGradient>
</defs>
</svg>
